<svg width="512" height="512" viewBox="0 0 512 512" fill="none" xmlns="http://www.w3.org/2000/svg">
  <defs>
    <linearGradient id="bgGrad" x1="64" y1="48" x2="448" y2="464" gradientUnits="userSpaceOnUse">
      <stop stop-color="#0B2D63"/>
      <stop offset="1" stop-color="#072252"/>
    </linearGradient>
    <linearGradient id="logoGrad" x1="170" y1="120" x2="355" y2="325" gradientUnits="userSpaceOnUse">
      <stop stop-color="#1DDCFF"/>
      <stop offset="1" stop-color="#08C4EC"/>
    </linearGradient>
  </defs>

  <rect x="40" y="40" width="432" height="432" rx="72" fill="url(#bgGrad)"/>
  <rect x="40" y="40" width="432" height="432" rx="72" stroke="#0C3A7E" stroke-width="8"/>

  <path d="M222 132H272L224 300H308L332 332H182L222 132Z" fill="url(#logoGrad)"/>
  <path d="M300 132H318L286 282H336L322 300H266L300 132Z" fill="#52BFE9"/>
  <path d="M308 300H348L378 330L348 360H308L330 330L308 300Z" fill="#1CCDF2"/>

  <path d="M196 365C205 392 230 410 256 410C282 410 307 392 316 365" stroke="white" stroke-width="8" stroke-linecap="round"/>
  <path d="M178 386C191 425 221 448 256 448C291 448 321 425 334 386" stroke="white" stroke-width="8" stroke-linecap="round"/>
  <path d="M160 408C177 458 214 486 256 486C298 486 335 458 352 408" stroke="white" stroke-width="8" stroke-linecap="round"/>
</svg>
